HIERARCHY
ROOT newVegas:Hips
{
	OFFSET 0.000000 96.479958 0.000000
	CHANNELS 6 Xposition Yposition Zposition Xrotation Yrotation Zrotation
	JOINT newVegas:Pelvis
	{
		OFFSET 0.000000 0.000000 0.000000
		CHANNELS 3 Xrotation Yrotation Zrotation
		JOINT newVegas:LeftUpLeg
		{
			OFFSET 18.735201 -5.666702 -4.541200
			CHANNELS 3 Xrotation Yrotation Zrotation
			JOINT newVegas:LeftLeg
			{
				OFFSET -0.021200 -31.938179 0.493100
				CHANNELS 3 Xrotation Yrotation Zrotation
				JOINT newVegas:LeftFoot
				{
					OFFSET 0.021200 -31.938179 -4.336299
					CHANNELS 3 Xrotation Yrotation Zrotation
					JOINT newVegas:LeftToeBase
					{
						OFFSET 0.943001 -26.722000 15.023500
						CHANNELS 3 Xrotation Yrotation Zrotation
						End Site
						{
							OFFSET 0.000000 30.670183 0.000000
						}
					}
				}
				JOINT newVegas:Left_PantLeg
				{
					OFFSET 0.663870 -9.044666 -1.108900
					CHANNELS 3 Xrotation Yrotation Zrotation
					End Site
					{
						OFFSET 1.415995 20.635357 0.000000
					}
				}
			}
		}
		JOINT newVegas:RightUpLeg
		{
			OFFSET -18.735201 -5.666702 -4.541200
			CHANNELS 3 Xrotation Yrotation Zrotation
			JOINT newVegas:RightLeg
			{
				OFFSET 0.018946 -31.938133 0.493100
				CHANNELS 3 Xrotation Yrotation Zrotation
				JOINT newVegas:RightFoot
				{
					OFFSET -0.018946 -31.938126 -4.336299
					CHANNELS 3 Xrotation Yrotation Zrotation
					JOINT newVegas:RightToeBase
					{
						OFFSET -0.943001 -26.722004 15.023500
						CHANNELS 3 Xrotation Yrotation Zrotation
						End Site
						{
							OFFSET 0.000000 30.670187 0.000000
						}
					}
				}
				JOINT newVegas:Right_PantLeg
				{
					OFFSET -0.661674 -9.044716 -1.108900
					CHANNELS 3 Xrotation Yrotation Zrotation
					End Site
					{
						OFFSET -1.415958 20.635269 0.000000
					}
				}
			}
		}
	}
	JOINT newVegas:Spine
	{
		OFFSET 0.000000 10.199997 -0.299500
		CHANNELS 3 Xrotation Yrotation Zrotation
		JOINT newVegas:Spine1
		{
			OFFSET 0.000000 11.900002 -1.516600
			CHANNELS 3 Xrotation Yrotation Zrotation
			JOINT newVegas:Spine2
			{
				OFFSET 0.000000 13.600006 -2.842500
				CHANNELS 3 Xrotation Yrotation Zrotation
				JOINT newVegas:Neck
				{
					OFFSET 0.000000 9.624100 -2.890100
					CHANNELS 3 Xrotation Yrotation Zrotation
					JOINT newVegas:Head
					{
						OFFSET 0.000000 14.068802 -1.351900
						CHANNELS 3 Xrotation Yrotation Zrotation
						JOINT newVegas:Hair_Back
						{
							OFFSET 0.000000 3.231903 -17.524799
							CHANNELS 3 Xrotation Yrotation Zrotation
							End Site
							{
								OFFSET 0.000000 19.849884 0.000000
							}
						}
						JOINT newVegas:Hair_Front
						{
							OFFSET 0.000000 31.260406 4.573800
							CHANNELS 3 Xrotation Yrotation Zrotation
							JOINT newVegas:Hair_Front1
							{
								OFFSET 0.000000 2.284103 11.993300
								CHANNELS 3 Xrotation Yrotation Zrotation
								JOINT newVegas:Hair_Front2
								{
									OFFSET 0.000000 2.284103 11.993300
									CHANNELS 3 Xrotation Yrotation Zrotation
									End Site
									{
										OFFSET 0.000000 12.208862 0.000000
									}
								}
							}
						}
						JOINT newVegas:Jowel
						{
							OFFSET 0.000000 -7.458206 6.864100
							CHANNELS 3 Xrotation Yrotation Zrotation
							End Site
							{
								OFFSET 0.000000 19.849884 0.000000
							}
						}
					}
				}
				JOINT newVegas:LeftShoulder
				{
					OFFSET 15.263000 10.923401 -0.547700
					CHANNELS 3 Xrotation Yrotation Zrotation
					JOINT newVegas:LeftArm
					{
						OFFSET 25.438599 -2.830597 -13.032500
						CHANNELS 3 Xrotation Yrotation Zrotation
						JOINT newVegas:LeftForeArm
						{
							OFFSET 29.960503 0.000000 0.000000
							CHANNELS 3 Xrotation Yrotation Zrotation
							JOINT newVegas:LeftHand
							{
								OFFSET 27.849251 0.000000 0.000000
								CHANNELS 3 Xrotation Yrotation Zrotation
								JOINT newVegas:LeftHandThumb1
								{
									OFFSET 4.487587 -3.305161 6.305391
									CHANNELS 3 Xrotation Yrotation Zrotation
									JOINT newVegas:LeftHandThumb2
									{
										OFFSET 5.480453 -3.164139 3.164143
										CHANNELS 3 Xrotation Yrotation Zrotation
										JOINT newVegas:LeftHandThumb3
										{
											OFFSET 5.159721 -2.978973 2.978967
											CHANNELS 3 Xrotation Yrotation Zrotation
											End Site
											{
												OFFSET 2.494507 5.926697 1.738678
											}
										}
									}
								}
								JOINT newVegas:LeftHandIndex1
								{
									OFFSET 18.578728 -0.527832 5.208049
									CHANNELS 3 Xrotation Yrotation Zrotation
									JOINT newVegas:LeftHandIndex2
									{
										OFFSET 3.192009 0.000000 0.000000
										CHANNELS 3 Xrotation Yrotation Zrotation
										JOINT newVegas:LeftHandIndex3
										{
											OFFSET 3.835129 0.000000 0.000000
											CHANNELS 3 Xrotation Yrotation Zrotation
											End Site
											{
												OFFSET -0.034599 3.816971 0.371180
											}
										}
									}
								}
								JOINT newVegas:LeftHandMiddle1
								{
									OFFSET 18.476105 0.000000 0.000000
									CHANNELS 3 Xrotation Yrotation Zrotation
									JOINT newVegas:LeftHandMiddle2
									{
										OFFSET 3.324875 0.000000 0.000000
										CHANNELS 3 Xrotation Yrotation Zrotation
										JOINT newVegas:LeftHandMiddle3
										{
											OFFSET 4.596550 0.000000 0.000000
											CHANNELS 3 Xrotation Yrotation Zrotation
											End Site
											{
												OFFSET 0.057701 4.578827 0.399218
											}
										}
									}
								}
								JOINT newVegas:LeftHandRing1
								{
									OFFSET 17.732719 0.121887 -4.201567
									CHANNELS 3 Xrotation Yrotation Zrotation
									JOINT newVegas:LeftHandRing2
									{
										OFFSET 2.733170 0.000000 0.000000
										CHANNELS 3 Xrotation Yrotation Zrotation
										JOINT newVegas:LeftHandRing3
										{
											OFFSET 3.178268 0.000000 0.000000
											CHANNELS 3 Xrotation Yrotation Zrotation
											End Site
											{
												OFFSET 0.119102 3.170624 0.185394
											}
										}
									}
								}
								JOINT newVegas:LeftHandPinky1
								{
									OFFSET 15.989624 -0.606689 -7.535461
									CHANNELS 3 Xrotation Yrotation Zrotation
									JOINT newVegas:LeftHandPinky2
									{
										OFFSET 2.538986 0.000000 0.000000
										CHANNELS 3 Xrotation Yrotation Zrotation
										JOINT newVegas:LeftHandPinky3
										{
											OFFSET 2.593102 0.000000 0.000000
											CHANNELS 3 Xrotation Yrotation Zrotation
											End Site
											{
												OFFSET -0.150902 2.584198 0.152708
											}
										}
									}
								}
							}
							JOINT newVegas:Left_Sleeve
							{
								OFFSET 0.267448 -0.649796 0.577675
								CHANNELS 3 Xrotation Yrotation Zrotation
								End Site
								{
									OFFSET 0.000000 15.991241 0.000000
								}
							}
							JOINT newVegas:Left_CapeC
							{
								OFFSET 15.715958 -8.608795 -6.935905
								CHANNELS 3 Xrotation Yrotation Zrotation
								JOINT newVegas:Left_CapeC1
								{
									OFFSET 0.000000 -8.688499 0.000000
									CHANNELS 3 Xrotation Yrotation Zrotation
									End Site
									{
										OFFSET 0.000000 8.688499 0.000000
									}
								}
							}
						}
						JOINT newVegas:Left_CapeB
						{
							OFFSET 26.118385 -8.608795 -7.079235
							CHANNELS 3 Xrotation Yrotation Zrotation
							JOINT newVegas:Left_CapeB1
							{
								OFFSET 0.000000 -8.688499 0.000000
								CHANNELS 3 Xrotation Yrotation Zrotation
								End Site
								{
									OFFSET 0.000000 8.688499 0.000000
								}
							}
						}
						JOINT newVegas:Left_CapeA
						{
							OFFSET 5.115639 -8.608795 -10.395809
							CHANNELS 3 Xrotation Yrotation Zrotation
							JOINT newVegas:Left_CapeA1
							{
								OFFSET 0.000000 -8.688499 0.000000
								CHANNELS 3 Xrotation Yrotation Zrotation
								End Site
								{
									OFFSET 0.000000 8.688499 0.000000
								}
							}
						}
					}
				}
				JOINT newVegas:RightShoulder
				{
					OFFSET -15.263000 10.923401 -0.547700
					CHANNELS 3 Xrotation Yrotation Zrotation
					JOINT newVegas:RightArm
					{
						OFFSET -25.438599 -2.830597 -13.032500
						CHANNELS 3 Xrotation Yrotation Zrotation
						JOINT newVegas:RightForeArm
						{
							OFFSET -29.960503 0.000000 0.000000
							CHANNELS 3 Xrotation Yrotation Zrotation
							JOINT newVegas:RightHand
							{
								OFFSET -27.849251 0.000000 0.000000
								CHANNELS 3 Xrotation Yrotation Zrotation
								JOINT newVegas:RightHandThumb1
								{
									OFFSET -4.487587 -3.305161 6.305391
									CHANNELS 3 Xrotation Yrotation Zrotation
									JOINT newVegas:RightHandThumb2
									{
										OFFSET -5.480453 -3.164139 3.164143
										CHANNELS 3 Xrotation Yrotation Zrotation
										JOINT newVegas:RightHandThumb3
										{
											OFFSET -5.159721 -2.978973 2.978967
											CHANNELS 3 Xrotation Yrotation Zrotation
											End Site
											{
												OFFSET -2.494507 5.926697 1.738678
											}
										}
									}
								}
								JOINT newVegas:RightHandIndex1
								{
									OFFSET -18.578728 -0.527832 5.208049
									CHANNELS 3 Xrotation Yrotation Zrotation
									JOINT newVegas:RightHandIndex2
									{
										OFFSET -3.192009 0.000000 0.000000
										CHANNELS 3 Xrotation Yrotation Zrotation
										JOINT newVegas:RightHandIndex3
										{
											OFFSET -3.835129 0.000000 0.000000
											CHANNELS 3 Xrotation Yrotation Zrotation
											End Site
											{
												OFFSET 0.034599 3.816971 0.371180
											}
										}
									}
								}
								JOINT newVegas:RightHandMiddle1
								{
									OFFSET -18.476105 0.000000 0.000000
									CHANNELS 3 Xrotation Yrotation Zrotation
									JOINT newVegas:RightHandMiddle2
									{
										OFFSET -3.324875 0.000000 0.000000
										CHANNELS 3 Xrotation Yrotation Zrotation
										JOINT newVegas:RightHandMiddle3
										{
											OFFSET -4.596550 0.000000 0.000000
											CHANNELS 3 Xrotation Yrotation Zrotation
											End Site
											{
												OFFSET -0.057701 4.578827 0.399218
											}
										}
									}
								}
								JOINT newVegas:RightHandRing1
								{
									OFFSET -17.732719 0.121887 -4.201567
									CHANNELS 3 Xrotation Yrotation Zrotation
									JOINT newVegas:RightHandRing2
									{
										OFFSET -2.733170 0.000000 0.000000
										CHANNELS 3 Xrotation Yrotation Zrotation
										JOINT newVegas:RightHandRing3
										{
											OFFSET -3.178268 0.000000 0.000000
											CHANNELS 3 Xrotation Yrotation Zrotation
											End Site
											{
												OFFSET -0.119102 3.170624 0.185394
											}
										}
									}
								}
								JOINT newVegas:RightHandPinky1
								{
									OFFSET -15.989624 -0.606689 -7.535461
									CHANNELS 3 Xrotation Yrotation Zrotation
									JOINT newVegas:RightHandPinky2
									{
										OFFSET -2.538986 0.000000 0.000000
										CHANNELS 3 Xrotation Yrotation Zrotation
										JOINT newVegas:RightHandPinky3
										{
											OFFSET -2.593102 0.000000 0.000000
											CHANNELS 3 Xrotation Yrotation Zrotation
											End Site
											{
												OFFSET 0.150902 2.584198 0.152708
											}
										}
									}
								}
							}
							JOINT newVegas:Right_CapeC
							{
								OFFSET -15.715958 -8.608795 -6.935905
								CHANNELS 3 Xrotation Yrotation Zrotation
								JOINT newVegas:Right_CapeC1
								{
									OFFSET 0.000000 -8.688499 0.000000
									CHANNELS 3 Xrotation Yrotation Zrotation
									End Site
									{
										OFFSET 0.000000 8.688499 0.000000
									}
								}
							}
							JOINT newVegas:Right_Sleeve
							{
								OFFSET -0.267448 -0.649994 0.577675
								CHANNELS 3 Xrotation Yrotation Zrotation
								End Site
								{
									OFFSET 0.000000 15.991302 0.000000
								}
							}
						}
						JOINT newVegas:Right_CapeA
						{
							OFFSET -5.115540 -8.608795 -10.395824
							CHANNELS 3 Xrotation Yrotation Zrotation
							JOINT newVegas:Right_CapeA1
							{
								OFFSET 0.000000 -8.688499 0.000000
								CHANNELS 3 Xrotation Yrotation Zrotation
								End Site
								{
									OFFSET 0.000000 8.688499 0.000000
								}
							}
						}
						JOINT newVegas:Right_CapeB
						{
							OFFSET -26.118187 -8.608795 -7.079266
							CHANNELS 3 Xrotation Yrotation Zrotation
							JOINT newVegas:Right_CapeB1
							{
								OFFSET 0.000000 -8.688499 0.000000
								CHANNELS 3 Xrotation Yrotation Zrotation
								End Site
								{
									OFFSET 0.000000 8.688499 0.000000
								}
							}
						}
					}
				}
				JOINT newVegas:Left_Collar
				{
					OFFSET 18.625099 8.655502 8.828100
					CHANNELS 3 Xrotation Yrotation Zrotation
					JOINT newVegas:Left_Collar1
					{
						OFFSET 14.783401 10.540405 -1.259500
						CHANNELS 3 Xrotation Yrotation Zrotation
						End Site
						{
							OFFSET 0.000000 18.199875 0.000000
						}
					}
				}
				JOINT newVegas:Collar_Back
				{
					OFFSET 0.000000 15.630707 -20.132601
					CHANNELS 3 Xrotation Yrotation Zrotation
					End Site
					{
						OFFSET 0.000000 22.523010 0.000000
					}
				}
				JOINT newVegas:Left_Peck
				{
					OFFSET 17.239599 -5.132599 25.482599
					CHANNELS 3 Xrotation Yrotation Zrotation
					End Site
					{
						OFFSET 0.000000 22.523010 0.000000
					}
				}
				JOINT newVegas:Right_Peck
				{
					OFFSET -17.239599 -5.132202 25.482599
					CHANNELS 3 Xrotation Yrotation Zrotation
					End Site
					{
						OFFSET 0.000000 22.523010 0.000000
					}
				}
				JOINT newVegas:Right_Collar
				{
					OFFSET -18.625099 8.655792 8.828100
					CHANNELS 3 Xrotation Yrotation Zrotation
					JOINT newVegas:Right_Collar1
					{
						OFFSET -14.783401 10.539993 -1.259500
						CHANNELS 3 Xrotation Yrotation Zrotation
						End Site
						{
							OFFSET 0.000000 18.199631 0.000000
						}
					}
				}
			}
		}
		JOINT newVegas:Belly
		{
			OFFSET 0.000000 -6.540398 9.014299
			CHANNELS 3 Xrotation Yrotation Zrotation
			End Site
			{
				OFFSET 0.000000 11.566666 0.000000
			}
		}
	}
	JOINT newVegas:ElvisFacialAnim_Joint
	{
		OFFSET 1.000000 -95.330101 -8.825800
		CHANNELS 3 Xrotation Yrotation Zrotation
		End Site
		{
			OFFSET 0.000000 35.315800 0.000000
		}
	}
}
MOTION
Frames: 4
Frame Time: 0.033333
-1.701216 93.711121 2.385726 2.912646 -28.993292 1.190033 -0.000000 0.000002 -0.000000 -19.101814 17.302018 13.857270 23.893223 12.123054 -1.504178 -6.536237 -3.224716 -8.273346 -0.000000 0.000000 -0.000000 -0.000000 0.000000 0.000001 -12.315004 -0.362738 -11.127746 16.865945 9.886423 0.864217 -8.232324 -1.387618 8.931961 -0.000000 -0.000001 -0.000000 0.000001 0.000000 -0.000000 7.835981 -0.360017 -2.682273 1.099248 -0.880562 2.383463 1.108680 -0.590427 2.446362 -0.922906 3.567109 -1.380675 -0.922903 3.567113 -1.380679 0.000001 -0.000001 -0.000000 -0.922833 3.567105 -1.380681 -0.922910 3.567119 -1.380677 -0.000000 0.000001 -0.000000 0.000001 -0.000001 0.000000 -0.057392 -8.759438 -0.061002 -55.250814 0.329446 -41.449375 11.584315 -65.827232 13.005458 -50.191078 12.352936 4.610862 17.551602 -5.699220 -12.932298 10.850455 26.127731 8.644823 -0.000003 -0.000001 0.000000 13.980913 1.201534 -55.004371 0.370805 1.161741 -65.441887 -0.000002 -0.000003 -0.000002 7.504728 1.174482 -63.778524 1.807829 1.475647 -64.568005 0.000000 0.000001 0.000000 8.574345 2.179070 -75.148999 -0.217866 1.002855 -57.855117 0.000001 -0.000001 -0.000000 10.030115 13.637060 -84.750271 0.877104 0.062307 -64.595544 -0.000000 -0.000003 -0.000001 0.000002 -0.000001 0.000000 0.000002 -0.000001 0.000000 0.000001 -0.000001 0.000001 0.000002 0.000000 -0.000001 0.000002 -0.000001 -0.000002 0.000002 0.000000 -0.000001 -0.000000 -0.000001 -0.000002 4.849300 7.760140 5.560458 -0.933494 -2.176885 61.845683 11.299264 18.943443 -3.987617 -0.459218 6.620143 5.830228 15.788505 -2.734484 -17.205883 -2.198319 -31.113571 7.361268 0.000001 -0.000002 -0.000001 2.371629 -3.659170 8.487441 -2.147359 -2.473159 18.673298 -0.000001 0.000001 -0.000001 -1.976251 -5.707899 13.662334 0.283032 -5.105393 26.988101 -0.000001 0.000001 -0.000002 -3.263057 -8.562154 11.769121 4.036045 -4.063295 33.263103 -0.000001 0.000001 0.000002 -6.474168 -11.347978 23.260701 10.719417 -2.558792 34.823009 -0.000000 0.000001 0.000003 0.000000 -0.000000 -0.000000 0.000000 -0.000000 0.000002 0.000000 -0.000000 0.000002 0.000001 0.000000 0.000000 0.000001 0.000001 -0.000001 0.000001 0.000000 0.000000 0.000001 0.000001 0.000000 0.000001 0.000003 -0.000001 0.000001 0.000003 -0.000001 0.000001 0.000003 -0.000001 0.000001 0.000003 -0.000001 0.000001 0.000003 -0.000001 0.000001 0.000003 -0.000001 0.000001 0.000003 -0.000001 -0.000000 -0.000001 -0.000000 -0.000000 0.000002 -0.000000 
-1.612712 93.685699 2.519653 3.120352 -28.704826 1.105741 0.000000 0.000001 -0.000000 -19.631634 17.216530 14.098158 24.402739 11.780792 -1.694460 -6.809170 -3.228284 -8.070354 0.000000 -0.000000 0.000000 0.000000 0.000000 0.000001 -12.015166 -0.471561 -11.019324 16.315468 9.528302 0.834328 -8.144500 -1.383340 9.045266 0.000000 -0.000001 0.000000 0.000001 -0.000001 -0.000001 8.073533 -0.259852 -2.681945 1.022051 -0.825907 2.425563 1.028833 -0.525911 2.478454 -0.854532 3.521932 -1.427299 -0.854545 3.521941 -1.427296 -0.000000 -0.000002 0.000000 -0.854605 3.521939 -1.427294 -0.854393 3.521937 -1.427308 -0.000000 -0.000001 0.000000 -0.000000 -0.000002 0.000000 0.188416 -8.661062 1.015277 -55.347048 0.675818 -40.230948 16.197345 -65.541088 17.085973 -49.681092 12.057061 4.850625 17.551604 -5.699221 -12.932299 10.850458 26.127728 8.644821 -0.000005 0.000001 -0.000003 13.980917 1.201536 -55.004374 0.370810 1.161741 -65.441887 0.000001 0.000001 0.000001 7.504728 1.174481 -63.778524 1.807831 1.475645 -64.567998 -0.000000 -0.000001 0.000003 8.574346 2.179071 -75.148999 -0.217867 1.002857 -57.855117 0.000001 0.000001 -0.000001 10.030119 13.637068 -84.750271 0.877102 0.062306 -64.595551 0.000000 -0.000002 0.000004 0.000002 0.000002 -0.000001 0.000002 0.000002 -0.000001 0.000001 0.000002 -0.000001 -0.000002 -0.000001 0.000001 -0.000002 -0.000001 0.000000 -0.000002 -0.000001 0.000001 -0.000004 -0.000001 -0.000000 4.826598 7.579049 5.821519 -0.482089 -2.276308 61.573821 11.193148 19.240814 -3.974235 -0.460811 6.477863 5.789649 15.788505 -2.734485 -17.205882 -2.198322 -31.113571 7.361271 -0.000000 0.000001 0.000001 2.371630 -3.659170 8.487442 -2.147358 -2.473160 18.673297 -0.000001 0.000001 0.000000 -1.976251 -5.707898 13.662335 0.283033 -5.105393 26.988101 -0.000000 0.000000 -0.000002 -3.263055 -8.562150 11.769118 4.036048 -4.063291 33.263110 -0.000001 0.000001 0.000001 -6.474166 -11.347982 23.260703 10.719423 -2.558789 34.823009 -0.000001 0.000004 -0.000005 -0.000000 0.000000 0.000000 -0.000000 0.000000 -0.000001 -0.000000 0.000000 0.000000 -0.000000 -0.000001 -0.000000 -0.000000 0.000000 -0.000000 -0.000000 -0.000001 -0.000000 -0.000000 -0.000000 -0.000000 0.000001 0.000001 -0.000000 0.000001 0.000001 -0.000000 0.000001 0.000001 -0.000000 0.000001 0.000001 -0.000000 0.000001 0.000001 -0.000000 0.000001 0.000001 -0.000000 0.000001 0.000001 -0.000000 0.000001 -0.000000 -0.000000 0.000000 0.000001 -0.000000 
-1.521060 93.644409 2.655171 3.260558 -28.334399 1.023295 0.000000 0.000001 -0.000000 -20.151170 17.110565 14.294763 24.969787 11.390266 -1.891981 -7.092270 -3.244891 -7.820528 0.000000 -0.000000 -0.000000 0.000000 -0.000000 -0.000000 -11.760980 -0.597079 -10.991292 15.997797 9.224430 0.852796 -8.185625 -1.385140 9.130850 0.000000 0.000001 0.000000 -0.000000 0.000001 0.000000 8.519274 -0.163966 -2.736610 0.914761 -0.772031 2.468991 0.919305 -0.459286 2.512569 -0.785147 3.470347 -1.466454 -0.785127 3.470333 -1.466465 0.000001 -0.000001 -0.000001 -0.785037 3.470399 -1.466488 -0.785039 3.470283 -1.466465 -0.000001 0.000001 -0.000000 0.000001 -0.000001 -0.000001 0.478263 -8.566428 2.293161 -55.468697 1.075591 -38.892101 19.492253 -65.291718 19.889412 -49.096653 11.733801 4.925570 17.551602 -5.699225 -12.932297 10.850467 26.127729 8.644821 -0.000000 -0.000000 -0.000005 13.980916 1.201536 -55.004377 0.370808 1.161740 -65.441887 -0.000000 0.000001 -0.000000 7.504728 1.174483 -63.778524 1.807829 1.475646 -64.567998 0.000001 0.000001 0.000003 8.574347 2.179071 -75.148999 -0.217866 1.002855 -57.855117 0.000000 0.000001 -0.000003 10.030114 13.637065 -84.750271 0.877104 0.062306 -64.595551 0.000001 -0.000001 -0.000002 0.000001 0.000004 -0.000001 0.000001 0.000004 -0.000001 -0.000000 0.000005 -0.000001 0.000002 0.000000 0.000001 0.000002 -0.000001 -0.000000 0.000002 0.000000 0.000001 0.000001 -0.000001 -0.000000 4.795182 7.421333 6.221309 0.001280 -2.399823 61.156223 10.960071 19.544590 -3.894330 -0.436956 6.427837 5.565032 15.788506 -2.734484 -17.205878 -2.198323 -31.113574 7.361266 0.000000 -0.000000 -0.000001 2.371630 -3.659171 8.487442 -2.147359 -2.473158 18.673298 0.000000 0.000000 0.000000 -1.976250 -5.707899 13.662335 0.283035 -5.105393 26.988103 0.000000 -0.000000 0.000002 -3.263055 -8.562153 11.769119 4.036048 -4.063294 33.263107 0.000000 0.000001 -0.000000 -6.474166 -11.347979 23.260704 10.719418 -2.558796 34.823009 0.000000 0.000000 -0.000003 0.000000 0.000000 0.000002 0.000001 0.000000 -0.000001 0.000000 0.000001 0.000002 -0.000002 0.000001 0.000000 -0.000002 0.000000 0.000000 -0.000002 0.000001 0.000000 -0.000002 -0.000000 0.000000 -0.000000 0.000002 -0.000000 -0.000000 0.000002 -0.000000 -0.000000 0.000002 -0.000000 -0.000000 0.000002 -0.000000 -0.000000 0.000002 -0.000000 -0.000000 0.000002 -0.000000 -0.000000 0.000002 -0.000000 0.000001 -0.000000 -0.000000 0.000000 0.000001 -0.000000 
-1.413343 93.584618 2.813764 3.425183 -27.883216 0.958770 -0.000000 -0.000001 -0.000000 -20.779000 16.962553 14.454210 25.688275 10.978768 -2.094685 -7.448370 -3.273989 -7.459546 0.000000 -0.000000 -0.000000 0.000000 -0.000000 0.000001 -11.527116 -0.723380 -10.966059 15.797193 8.816285 0.813352 -8.333591 -1.395530 9.245993 0.000000 -0.000000 -0.000000 0.000000 0.000001 -0.000000 9.017559 -0.038811 -2.859939 0.770864 -0.689653 2.544049 0.772550 -0.361978 2.573983 -0.678563 3.408672 -1.518320 -0.678564 3.408655 -1.518317 -0.000000 -0.000000 0.000000 -0.678564 3.408671 -1.518319 -0.678567 3.408671 -1.518318 0.000001 0.000001 -0.000000 -0.000000 -0.000000 0.000000 0.776117 -8.528314 3.575836 -55.603242 1.411767 -37.567809 22.863778 -65.076369 22.762941 -48.560562 11.561512 5.173751 17.551602 -5.699220 -12.932296 10.850456 26.127734 8.644820 -0.000002 -0.000002 -0.000001 13.980915 1.201536 -55.004381 0.370810 1.161743 -65.441880 -0.000001 -0.000003 -0.000002 7.504728 1.174483 -63.778531 1.807828 1.475645 -64.567998 0.000001 0.000000 0.000001 8.574346 2.179071 -75.148999 -0.217865 1.002858 -57.855117 0.000001 0.000001 -0.000001 10.030118 13.637062 -84.750271 0.877102 0.062303 -64.595544 0.000002 -0.000003 0.000000 0.000000 -0.000001 -0.000000 0.000000 -0.000001 -0.000000 -0.000000 -0.000001 0.000000 0.000000 0.000003 0.000001 0.000000 0.000002 0.000001 0.000000 0.000003 0.000001 -0.000002 0.000002 0.000000 4.765857 7.275793 6.664490 0.642442 -2.510619 60.674845 10.898337 19.866300 -3.863835 -0.411070 6.324651 5.375183 15.788508 -2.734487 -17.205882 -2.198325 -31.113568 7.361267 0.000001 -0.000001 0.000001 2.371630 -3.659171 8.487442 -2.147359 -2.473160 18.673302 0.000001 -0.000000 0.000000 -1.976250 -5.707899 13.662337 0.283034 -5.105393 26.988101 0.000000 -0.000000 0.000001 -3.263056 -8.562149 11.769117 4.036046 -4.063294 33.263110 -0.000001 -0.000001 0.000002 -6.474168 -11.347982 23.260708 10.719419 -2.558791 34.823009 0.000001 -0.000000 0.000002 0.000000 -0.000000 -0.000001 0.000000 -0.000001 -0.000001 0.000000 -0.000000 0.000001 0.000000 -0.000001 -0.000000 0.000001 -0.000001 0.000000 0.000000 -0.000001 -0.000000 0.000001 -0.000001 0.000000 0.000000 -0.000001 0.000000 0.000000 -0.000001 0.000000 0.000000 -0.000001 0.000000 0.000000 -0.000001 0.000000 0.000000 -0.000001 0.000000 0.000000 -0.000001 0.000000 0.000000 -0.000001 0.000000 -0.000000 0.000002 -0.000000 -0.000000 -0.000001 -0.000000 
